<?xml version="1.0" standalone="no"?>
<!DOCTYPE svg PUBLIC "-//W3C//DTD SVG 20010904//EN"
 "http://www.w3.org/TR/2001/REC-SVG-20010904/DTD/svg10.dtd">
<svg version="1.0" xmlns="http://www.w3.org/2000/svg"
 width="300.000000pt" height="300.000000pt" viewBox="0 0 300.000000 300.000000"
 preserveAspectRatio="xMidYMid meet">
<metadata>
Created by potrace 1.11, written by Peter Selinger 2001-2013
</metadata>
<g transform="translate(0.000000,300.000000) scale(0.100000,-0.100000)"
fill="#000000" stroke="none">
<path d="M105 2977 c-16 -5 -32 -11 -33 -13 -4 -3 -23 -134 -22 -151 3 -54 -1
-83 -12 -83 -6 0 -6 -14 -2 -32 7 -36 12 -60 20 -125 5 -31 3 -43 -7 -43 -7 0
-3 -10 11 -25 20 -21 21 -25 7 -25 -13 0 -17 -8 -15 -30 2 -20 7 -29 15 -26
18 7 16 -4 -3 -19 -10 -7 -17 -28 -17 -58 -1 -26 -4 -47 -8 -47 -3 0 -6 -7 -6
-15 0 -8 6 -15 14 -15 9 0 6 -7 -7 -20 -18 -18 -18 -50 -1 -50 4 0 7 -9 8 -20
1 -11 -3 -20 -9 -20 -6 0 -2 -12 7 -27 17 -25 17 -26 0 -19 -14 5 -16 2 -11
-19 4 -15 2 -25 -4 -25 -6 0 -9 -4 -5 -9 3 -5 1 -13 -5 -16 -8 -5 -8 -11 0
-20 7 -8 9 -33 6 -60 -3 -27 -1 -43 5 -40 5 4 9 2 9 -4 0 -5 -6 -12 -13 -14
-9 -4 -9 -6 1 -6 6 -1 12 -6 12 -12 0 -6 -9 -8 -22 -4 -13 3 -19 3 -13 -2 6
-4 11 -14 12 -20 2 -7 4 -19 5 -25 2 -7 7 -16 12 -20 12 -8 14 -78 2 -78 -4 0
-5 -7 -2 -16 3 -8 2 -13 -3 -10 -5 3 -14 -1 -20 -8 -10 -12 -8 -13 8 -9 15 4
21 1 21 -12 0 -12 -5 -15 -18 -11 -15 5 -15 5 1 -8 18 -14 18 -15 0 -25 -17
-10 -17 -10 0 -11 15 0 23 -26 15 -46 -2 -3 5 -10 15 -15 16 -9 16 -12 2 -32
-13 -19 -13 -23 2 -39 9 -10 12 -18 7 -19 -5 0 0 -4 11 -9 17 -7 17 -9 3 -9
-10 -1 -22 -9 -27 -20 -8 -14 -5 -23 14 -41 25 -24 32 -40 17 -40 -5 0 -14 10
-20 23 l-11 22 0 -26 c-1 -14 4 -30 11 -37 8 -8 9 -12 1 -12 -6 0 -9 -8 -7
-17 10 -52 10 -101 0 -97 -7 3 -12 -5 -12 -16 0 -11 7 -20 16 -20 13 0 13 -2
1 -9 -12 -8 -12 -12 -2 -24 10 -13 9 -16 -6 -19 -15 -3 -13 -7 12 -31 29 -26
29 -27 7 -27 -12 0 -22 5 -22 10 0 6 -4 10 -10 10 -26 0 -5 -19 40 -38 28 -12
50 -26 50 -32 0 -6 -18 -1 -41 11 -39 19 -43 20 -58 4 -15 -15 -15 -17 1 -26
12 -7 16 -20 14 -45 l-2 -35 38 4 c39 5 58 -6 36 -19 -7 -4 -25 -7 -40 -6 -26
2 -27 1 -16 -23 6 -13 19 -27 29 -30 15 -5 16 -10 7 -38 -7 -18 -18 -37 -26
-43 -12 -9 -11 -12 2 -23 14 -11 16 -11 16 3 0 14 3 14 20 4 13 -8 19 -20 16
-31 -2 -9 3 -24 12 -33 13 -13 13 -17 2 -24 -18 -11 -33 -2 -26 16 3 8 1 14
-4 14 -6 0 -10 -6 -11 -12 0 -7 -2 -25 -4 -40 -3 -21 1 -27 21 -32 13 -4 24
-13 24 -21 0 -21 -20 -19 -21 3 0 9 -3 12 -5 5 -3 -6 2 -24 11 -40 9 -15 14
-19 10 -9 -6 19 -5 19 13 3 10 -9 20 -17 23 -17 8 0 4 88 -4 96 -4 5 -5 1 -1
-9 3 -10 1 -17 -5 -17 -17 0 -13 28 5 38 13 7 14 17 6 63 -6 30 -6 55 -2 57 5
2 7 9 4 16 -3 7 1 31 9 53 12 35 12 46 -1 77 -8 20 -18 36 -23 36 -5 0 -4 12
1 26 6 15 8 41 4 59 -4 26 -2 36 13 45 16 10 16 11 1 6 -17 -5 -24 10 -19 38
1 4 -2 13 -7 20 -12 16 -13 58 0 50 6 -4 6 1 -1 14 -6 12 -9 38 -6 59 3 21 7
54 9 73 2 19 9 48 15 63 10 25 9 29 -7 34 -13 3 -19 14 -20 36 0 18 -2 56 -3
84 -1 31 -5 50 -11 47 -5 -4 -2 8 6 25 9 17 20 31 25 31 14 0 19 36 8 56 -14
24 -20 103 -15 194 0 8 0 31 -1 50 -1 19 2 62 7 95 11 65 -4 100 -36 88 -10
-4 -8 1 6 15 13 13 23 36 24 57 4 100 4 195 -1 195 -6 0 -6 41 0 230 1 47 1
117 0 155 -2 39 0 88 4 109 5 25 4 37 -2 33 -6 -4 -8 3 -6 17 6 30 -4 36 -42
23z m-25 -636 c0 -6 -5 -13 -12 -17 -6 -4 -8 -3 -4 4 3 5 0 13 -6 15 -8 3 -6
6 5 6 9 1 17 -3 17 -8z m20 -1141 c0 -5 -10 -10 -22 -9 -22 0 -22 1 -3 9 11 5
21 9 23 9 1 1 2 -3 2 -9z m-26 -196 c8 -21 -12 -17 -24 6 -8 16 -8 18 4 14 8
-3 17 -12 20 -20z"/>
<path d="M2763 2613 c-10 -15 -23 -34 -30 -41 -14 -15 -9 -32 10 -31 9 0 8 2
-1 6 -8 3 -3 17 19 44 17 22 29 42 26 45 -3 3 -14 -7 -24 -23z"/>
<path d="M2620 2490 c-13 -8 -12 -10 3 -10 9 0 17 5 17 10 0 12 -1 12 -20 0z"/>
<path d="M2577 2473 c-11 -10 -8 -25 2 -18 6 3 14 -3 20 -12 9 -16 10 -16 11
-2 0 19 -24 42 -33 32z"/>
<path d="M2485 2361 c-3 -5 -1 -12 4 -15 5 -3 11 1 15 9 6 16 -9 21 -19 6z"/>
<path d="M2530 2350 c0 -5 5 -10 11 -10 5 0 7 5 4 10 -3 6 -8 10 -11 10 -2 0
-4 -4 -4 -10z"/>
<path d="M2485 2320 c-3 -5 -1 -10 4 -10 6 0 11 5 11 10 0 6 -2 10 -4 10 -3 0
-8 -4 -11 -10z"/>
<path d="M2512 2305 c-17 -20 5 -20 24 0 12 11 12 15 2 15 -7 -1 -19 -7 -26
-15z"/>
<path d="M2345 2229 c-11 -17 1 -21 15 -4 8 9 8 15 2 15 -6 0 -14 -5 -17 -11z"/>
<path d="M2412 2200 c-7 -11 -8 -20 -3 -20 9 0 24 30 18 36 -1 2 -8 -6 -15
-16z"/>
<path d="M2352 2190 c-7 -11 -11 -20 -9 -20 2 0 14 9 27 20 15 13 18 20 9 20
-8 0 -20 -9 -27 -20z"/>
<path d="M2310 2139 c-7 -12 -8 -19 -2 -15 6 3 13 0 15 -6 4 -10 8 -9 16 2 6
8 9 19 8 24 -6 19 -26 17 -37 -5z"/>
<path d="M2266 2094 c-11 -7 -17 -17 -13 -20 3 -4 14 1 23 10 21 22 15 28 -10
10z"/>
<path d="M2230 2060 c0 -6 5 -8 12 -4 8 5 9 2 5 -9 -7 -20 4 -22 21 -5 9 9 12
9 12 0 0 -6 -6 -15 -14 -19 -8 -4 -17 -21 -21 -38 l-6 -30 35 40 c20 22 36 43
36 47 0 6 -9 9 -62 24 -10 3 -18 0 -18 -6z"/>
<path d="M2144 1955 c-17 -19 -29 -37 -26 -40 3 -3 1 -5 -5 -5 -18 0 -65 -53
-53 -60 7 -4 3 -16 -10 -33 -24 -30 -68 -59 -55 -35 19 33 -62 -54 -115 -123
-65 -85 -106 -129 -114 -122 -2 3 -12 -9 -20 -25 -21 -40 -67 -72 -94 -65 -13
3 -27 21 -38 49 -9 24 -23 49 -31 56 -8 6 -27 39 -42 72 -35 77 -54 96 -94 95
-27 0 -41 -11 -85 -64 -48 -59 -51 -66 -41 -92 7 -20 7 -45 -1 -89 -7 -34 -10
-85 -7 -113 3 -28 1 -54 -4 -57 -5 -3 -8 -20 -6 -37 1 -18 -2 -31 -8 -30 -6 1
-9 -19 -6 -49 2 -42 -11 -117 -35 -187 -8 -24 -25 3 -30 45 -5 59 -38 149 -52
146 -7 -1 -20 -3 -30 -5 -9 -2 -26 -8 -37 -14 -19 -11 -19 -13 -2 -42 14 -23
16 -44 12 -93 -3 -39 -1 -65 6 -69 8 -5 8 -17 -1 -43 -6 -19 -9 -40 -6 -45 3
-5 -8 -24 -24 -42 -20 -21 -28 -35 -21 -42 6 -6 5 -14 -2 -22 -9 -8 -11 -33
-6 -81 4 -49 2 -77 -8 -96 -7 -15 -14 -45 -15 -67 -1 -22 -4 -38 -8 -36 -4 3
-13 -9 -20 -25 -16 -39 -26 -38 -35 3 -4 17 -9 39 -12 47 -2 8 -6 25 -8 37 -1
11 -6 30 -9 41 -4 10 -8 64 -11 118 -8 194 -15 247 -38 281 -12 17 -23 30 -26
27 -6 -6 -31 16 -31 28 0 5 5 6 10 3 18 -11 11 88 -15 206 -28 127 -81 299
-97 314 -8 7 -9 6 -4 -2 4 -7 2 -13 -5 -13 -7 0 -9 9 -6 22 4 13 -1 31 -13 46
-11 13 -17 28 -14 33 3 5 -4 17 -15 27 -11 9 -22 29 -25 43 -2 15 -11 41 -20
58 -17 32 -30 43 -20 16 4 -8 1 -15 -5 -15 -6 0 -11 8 -12 18 -1 31 -18 -24
-30 -96 -14 -90 -18 -223 -7 -245 6 -12 5 -16 -3 -15 -17 4 -31 -73 -26 -144
2 -32 1 -58 -3 -58 -3 0 -6 -17 -6 -37 0 -21 -6 -72 -13 -113 -10 -53 -10 -75
-3 -78 8 -2 6 -11 -4 -27 -9 -14 -13 -33 -9 -44 7 -23 -45 -264 -75 -344 -11
-30 -31 -70 -43 -89 -28 -40 -41 -72 -27 -63 6 3 10 1 10 -4 0 -6 -9 -16 -20
-23 -11 -7 -20 -17 -20 -22 0 -5 -7 -17 -16 -27 -22 -24 -10 -39 31 -39 27 0
42 9 74 43 22 23 41 49 41 57 0 8 7 29 16 45 32 60 85 201 89 235 8 64 16 102
28 129 6 14 11 40 11 56 1 18 6 29 14 27 13 -2 17 58 16 290 0 79 3 125 9 121
6 -4 7 3 3 18 -4 13 -9 40 -12 59 -3 27 -2 31 5 15 9 -18 10 -17 11 10 2 17 2
33 1 38 0 4 3 7 8 7 5 0 12 -18 16 -40 6 -38 25 -66 25 -38 0 9 3 9 10 -2 14
-22 12 -30 -5 -24 -19 8 -19 0 -1 -29 7 -12 12 -34 11 -49 -2 -24 0 -26 13
-15 13 10 14 9 4 -10 -15 -28 -16 -66 -1 -57 7 4 9 0 5 -13 -4 -13 2 -29 18
-48 13 -15 22 -34 19 -41 -2 -7 3 -24 12 -38 15 -22 15 -27 2 -31 -12 -5 -12
-12 -3 -39 6 -19 18 -41 25 -50 12 -14 12 -19 1 -29 -9 -9 -11 -9 -6 0 3 6 2
14 -4 18 -15 9 -12 -36 5 -65 16 -29 20 -74 5 -65 -7 4 -7 -2 0 -19 5 -15 5
-28 0 -31 -9 -6 -5 -40 10 -80 13 -35 13 -48 -2 -39 -7 4 -5 -1 4 -12 12 -14
17 -37 17 -79 0 -33 4 -73 9 -90 4 -16 7 -46 5 -65 -2 -32 -1 -33 12 -16 13
18 14 17 21 -8 3 -14 4 -32 1 -40 -4 -9 5 -19 24 -26 25 -11 34 -26 30 -52 0
-5 17 -8 39 -8 50 0 104 47 115 100 4 19 16 46 26 59 11 13 19 31 19 40 0 10
5 22 11 28 5 5 11 33 12 62 1 33 6 51 15 51 12 0 14 7 15 47 0 12 4 20 9 17 9
-5 40 57 32 65 -2 3 -11 -4 -19 -15 -12 -16 -14 -16 -15 -3 0 32 13 79 22 79
6 0 8 -6 5 -12 -3 -9 9 -14 38 -16 54 -3 76 22 68 74 -4 21 -2 34 5 34 7 0 10
19 7 52 -2 29 1 56 6 59 6 3 13 39 16 80 3 41 10 76 15 77 5 2 -3 24 -18 49
-20 36 -23 47 -13 54 7 4 22 3 33 -3 19 -10 19 -11 1 -24 -18 -13 -18 -15 -3
-31 16 -15 17 -15 17 3 0 10 3 34 7 53 5 24 3 32 -5 27 -13 -9 -14 -5 -1 28 6
16 6 27 0 31 -16 10 -11 25 5 19 13 -5 14 -2 5 20 -7 19 -6 26 3 26 7 0 18 14
25 30 8 17 20 30 28 30 9 0 13 4 10 8 -7 11 11 38 20 29 4 -4 8 -23 8 -42 l1
-34 36 39 c20 22 39 40 43 40 3 0 6 -25 6 -56 0 -50 -2 -55 -19 -49 -11 3 -22
1 -26 -5 -3 -5 -1 -10 4 -10 6 0 11 -6 11 -14 0 -17 36 -41 75 -50 26 -5 33
-2 54 29 13 19 28 35 33 35 5 0 33 23 62 50 29 28 58 50 65 50 7 0 9 9 5 24
-7 30 30 117 48 114 7 -2 25 23 40 55 26 54 49 70 64 46 3 -6 -6 -22 -22 -35
-19 -15 -24 -23 -14 -24 8 0 43 31 78 69 58 65 81 99 47 71 -13 -11 -13 -8 -3
21 12 37 38 72 46 64 7 -6 42 25 42 37 0 5 -4 6 -10 3 -16 -10 -12 7 10 43 26
42 13 40 -26 -3z m-684 -275 c13 -9 13 -12 -2 -20 -19 -12 -31 -57 -31 -120 1
-40 0 -42 -7 -15 -12 45 -11 124 0 146 12 22 19 23 40 9z m-817 -125 c2 -15 0
-24 -6 -22 -12 4 -18 47 -6 47 3 0 9 -11 12 -25z m845 -16 c-3 -27 -38 -40
-38 -14 0 9 5 26 11 37 14 25 32 10 27 -23z m-56 -52 c21 -6 19 -34 -2 -29 -8
2 -10 -3 -7 -13 4 -8 3 -15 -2 -15 -5 0 -12 16 -15 36 -4 19 -9 43 -12 52 -2
9 1 7 7 -5 6 -12 20 -24 31 -26z m-724 -45 c6 -18 -15 -14 -22 4 -4 10 -1 14
6 12 6 -2 14 -10 16 -16z m554 -638 c7 -1 19 -2 27 -3 11 -1 11 -4 1 -16 -25
-30 -65 -9 -75 40 l-7 30 21 -25 c11 -14 26 -26 33 -26z"/>
<path d="M2184 1956 c-10 -8 -16 -17 -13 -20 3 -3 14 3 24 14 21 23 17 26 -11
6z"/>
<path d="M2109 1833 c-13 -16 -12 -17 4 -4 9 7 17 15 17 17 0 8 -8 3 -21 -13z"/>
<path d="M2011 1804 c0 -11 3 -14 6 -6 3 7 2 16 -1 19 -3 4 -6 -2 -5 -13z"/>
<path d="M1957 1629 c7 -7 15 -10 18 -7 3 3 -2 9 -12 12 -14 6 -15 5 -6 -5z"/>
<path d="M1875 1569 c-4 -6 -5 -12 -2 -15 2 -3 7 2 10 11 7 17 1 20 -8 4z"/>
<path d="M1917 1553 c-4 -3 -7 -11 -7 -17 0 -6 5 -5 12 2 6 6 9 14 7 17 -3 3
-9 2 -12 -2z"/>
<path d="M1866 1518 c-8 -12 -13 -25 -10 -30 3 -5 7 -8 8 -6 28 44 35 58 27
58 -6 0 -17 -10 -25 -22z"/>
<path d="M100 510 c0 -19 4 -22 30 -18 39 6 47 -6 18 -26 -17 -12 -19 -16 -6
-16 9 0 19 -6 21 -12 3 -7 6 -2 7 12 1 14 3 32 5 41 2 13 -4 16 -25 15 -16 -1
-28 2 -27 7 1 5 -4 12 -10 14 -8 3 -13 -4 -13 -17z"/>
<path d="M191 424 c0 -11 3 -14 6 -6 3 7 2 16 -1 19 -3 4 -6 -2 -5 -13z"/>
<path d="M154 379 c-3 -6 -2 -15 3 -20 5 -5 9 -1 9 11 0 23 -2 24 -12 9z"/>
<path d="M116 362 c-2 -4 5 -14 17 -22 19 -12 21 -11 10 2 -7 8 -10 18 -6 21
3 4 1 7 -5 7 -6 0 -13 -4 -16 -8z"/>
<path d="M255 350 c3 -5 8 -10 11 -10 2 0 4 5 4 10 0 6 -5 10 -11 10 -5 0 -7
-4 -4 -10z"/>
<path d="M850 335 c0 -5 5 -17 10 -25 5 -8 10 -10 10 -5 0 6 -5 17 -10 25 -5
8 -10 11 -10 5z"/>
<path d="M153 283 c0 -17 5 -16 23 1 12 13 12 15 -4 13 -10 0 -19 -7 -19 -14z"/>
<path d="M905 270 c3 -5 8 -10 11 -10 2 0 4 5 4 10 0 6 -5 10 -11 10 -5 0 -7
-4 -4 -10z"/>
<path d="M128 228 c8 -9 11 -22 7 -28 -3 -5 -1 -10 4 -10 17 0 13 26 -6 41
-16 13 -17 12 -5 -3z"/>
<path d="M2650 190 c0 -5 5 -10 10 -10 6 0 10 5 10 10 0 6 -4 10 -10 10 -5 0
-10 -4 -10 -10z"/>
<path d="M2179 176 c-14 -6 -33 -17 -41 -23 -12 -10 -18 -10 -33 1 -14 10 -25
11 -47 2 -25 -9 -32 -8 -42 7 -14 17 -27 23 -25 10 4 -22 -3 -32 -16 -27 -8 4
-21 2 -28 -3 -16 -13 -57 -14 -57 -2 0 6 -7 6 -18 0 -19 -10 -116 0 -181 18
-28 9 -34 8 -38 -8 -3 -12 -15 -18 -36 -18 -102 -3 -122 -5 -128 -14 -3 -6
-20 3 -37 20 -18 16 -32 24 -32 18 0 -8 -3 -8 -8 1 -7 10 -15 10 -38 1 -16 -7
-33 -11 -37 -11 -4 1 -32 -2 -62 -6 -30 -5 -55 -6 -55 -2 0 9 -86 7 -95 -2 -4
-4 -15 -4 -24 1 -9 5 -41 11 -72 15 -56 6 -69 0 -73 -36 -1 -3 -5 -10 -10 -15
-5 -5 -6 -3 -2 4 4 8 -2 17 -16 23 -32 13 -188 28 -194 18 -3 -4 -14 -3 -25 2
-15 8 -19 7 -19 -4 0 -11 -8 -13 -34 -9 -19 3 -48 1 -63 -5 -21 -7 -34 -6 -46
3 -12 9 -61 11 -177 8 -102 -2 -167 0 -180 7 -15 8 -20 8 -20 -1 0 -6 -6 -9
-13 -6 -26 10 -40 -9 -32 -42 9 -42 28 -50 126 -55 46 -3 95 -8 109 -11 31 -8
35 -8 90 1 25 4 65 8 90 8 25 1 52 7 60 15 13 13 15 12 18 -2 3 -12 12 -17 32
-15 18 1 26 7 23 15 -7 18 7 16 21 -3 7 -9 30 -17 56 -19 25 -1 45 -3 45 -4 0
-2 8 -4 17 -6 12 -2 15 2 11 13 -6 15 -4 15 14 -1 21 -18 63 -23 63 -8 0 9 65
5 81 -5 5 -3 18 0 30 7 18 9 21 9 17 -3 -5 -11 8 -14 68 -14 59 1 74 4 74 16
0 12 2 12 9 2 4 -7 14 -12 22 -10 8 2 13 -2 12 -9 -2 -9 4 -10 24 -2 14 5 32
8 39 5 7 -3 11 0 8 7 -3 8 8 12 31 12 19 0 35 -3 35 -6 0 -4 13 -4 30 1 31 9
47 -1 34 -23 -4 -6 2 -3 14 7 17 14 22 16 22 5 0 -11 2 -11 8 -2 5 7 21 14 36
15 16 2 31 8 33 16 4 10 10 10 28 -2 20 -13 25 -13 35 -1 7 8 16 12 21 9 5 -3
9 0 9 6 0 7 6 6 15 -3 17 -18 94 -20 114 -4 12 10 13 9 6 -2 -6 -10 -4 -12 5
-6 19 12 104 9 108 -3 2 -8 11 -8 29 -1 13 5 28 7 33 4 5 -3 12 0 16 7 5 8 9
6 14 -7 6 -16 9 -15 33 11 18 20 27 24 27 13 0 -8 -5 -20 -12 -27 -6 -6 -9
-15 -5 -18 3 -4 18 19 33 49 15 31 31 54 36 51 5 -3 -1 -23 -13 -44 -12 -22
-19 -46 -15 -55 5 -15 9 -16 29 -3 29 19 67 29 67 17 0 -5 4 -9 9 -9 5 0 7 16
4 36 -3 25 -1 34 6 30 6 -4 11 -2 11 3 0 6 -5 11 -12 11 -6 0 -8 3 -4 7 13 13
34 -25 29 -52 -5 -23 -4 -23 20 -12 14 7 28 20 30 29 4 15 10 15 41 6 20 -6
36 -15 36 -20 0 -5 9 -6 20 -3 13 4 20 2 20 -6 0 -7 2 -10 5 -7 11 11 -7 37
-22 31 -11 -4 -14 -2 -11 8 3 8 11 13 17 11 6 -1 10 1 10 5 -3 20 2 25 15 14
10 -9 16 -8 26 4 17 21 30 19 30 -5 0 -12 -5 -17 -14 -14 -8 3 -17 1 -20 -4
-3 -6 12 -12 35 -14 35 -3 42 0 49 17 5 12 15 22 24 22 8 0 13 -4 10 -9 -3 -4
0 -8 5 -8 6 0 11 6 11 14 0 7 9 20 20 27 19 13 17 14 -25 16 -25 1 -43 -2 -40
-7 10 -16 -16 -22 -33 -7 -13 11 -35 14 -91 11 -40 -2 -82 1 -93 7 -30 16 -51
17 -79 5z m-281 -103 c1 -22 0 -24 -8 -13 -8 12 -10 13 -10 1 0 -8 -3 -12 -6
-9 -5 5 12 48 19 48 2 0 4 -12 5 -27z m-179 -14 c-25 -16 -32 -9 -13 12 12 13
20 16 22 9 3 -7 -2 -16 -9 -21z m-953 12 c-4 -5 0 -12 6 -14 8 -3 6 -6 -4 -6
-18 -1 -24 10 -11 22 9 10 15 8 9 -2z m1334 -9 c0 -4 -9 -13 -21 -20 -19 -12
-19 -11 -9 8 10 19 30 28 30 12z m-1110 -22 c0 -5 -2 -10 -4 -10 -3 0 -8 5
-11 10 -3 6 -1 10 4 10 6 0 11 -4 11 -10z"/>
<path d="M2783 165 c0 -6 8 -12 17 -12 9 -1 17 4 17 11 0 6 -8 12 -17 12 -9 0
-17 -5 -17 -11z"/>
<path d="M2576 155 c4 -8 -1 -26 -10 -40 -12 -18 -13 -25 -4 -25 26 0 40 17
33 39 -4 13 -2 21 5 21 6 0 8 5 5 10 -10 16 -35 12 -29 -5z"/>
<path d="M2620 150 c0 -19 3 -21 12 -12 9 9 9 15 0 24 -9 9 -12 7 -12 -12z"/>
<path d="M2650 160 c0 -5 5 -10 11 -10 5 0 7 5 4 10 -3 6 -8 10 -11 10 -2 0
-4 -4 -4 -10z"/>
<path d="M2530 130 c0 -5 5 -10 11 -10 5 0 7 5 4 10 -3 6 -8 10 -11 10 -2 0
-4 -4 -4 -10z"/>
<path d="M2849 123 c-12 -16 -12 -17 1 -7 8 6 22 14 30 17 13 5 12 6 -1 6 -9
1 -23 -7 -30 -16z"/>
<path d="M2660 119 c0 -5 5 -7 10 -4 6 3 10 8 10 11 0 2 -4 4 -10 4 -5 0 -10
-5 -10 -11z"/>
<path d="M2710 126 c0 -2 8 -10 18 -17 15 -13 16 -12 3 4 -13 16 -21 21 -21
13z"/>
<path d="M1375 10 c3 -5 11 -10 16 -10 6 0 7 5 4 10 -3 6 -11 10 -16 10 -6 0
-7 -4 -4 -10z"/>
</g>
</svg>
